<!DOCTYPE svg PUBLIC "-//W3C//DTD SVG 1.1//EN" "http://www.w3.org/Graphics/SVG/1.1/DTD/svg11.dtd">
<!-- Uploaded to: SVG Repo, www.svgrepo.com, Transformed by: SVG Repo Mixer Tools -->
<svg width="64px" height="64px" viewBox="0 0 1024 1024" class="icon" version="1.1" xmlns="http://www.w3.org/2000/svg" fill="#000000">

<g id="SVGRepo_bgCarrier" stroke-width="0"/>

<g id="SVGRepo_tracerCarrier" stroke-linecap="round" stroke-linejoin="round"/>

<g id="SVGRepo_iconCarrier">

<path d="M425.818443 795.758371c-5.494036-3.17624-13.814802-3.519617-18.57303-0.772599L252.063425 884.582707c-4.758228 2.747018-4.163449 7.548168 1.330587 10.724407l214.488144 123.830419c5.494036 3.17624 13.814802 3.519617 18.57303 0.772599l155.188119-89.596934c4.758228-2.747018 4.157317-7.548168-1.336718-10.724408l-214.488144-123.830419z" fill="#4762AF"/>

<path d="M248.850395 872.02491s-0.441485 18.088623 0.10424 18.002779c0.545725-0.085844 26.513629 13.385581 26.513628 13.38558l26.482971-26.654658 1.631041-19.13715-54.73188 14.403449zM644.850204 909.152575v16.488239l-40.144479 23.349653-20.688479-49.176527 60.832958 9.338635z" fill="#4762AF"/>

<path d="M425.818443 778.546587c-5.494036-3.17624-13.814802-3.519617-18.57303-0.772599L252.063425 867.370922c-4.758228 2.747018-4.163449 7.554299 1.330587 10.724407l214.488144 123.836551c5.494036 3.170108 13.814802 3.513485 18.57303 0.766467l155.188119-89.596934c4.758228-2.747018 4.157317-7.548168-1.336718-10.724407l-214.488144-123.830419zM242.031904 15.709509l18.585294-7.775042L261.855808 0 239.119329 5.08321l2.912575 10.626299zM216.235689 608.489006c0 23.65624 14.403449 51.187737 32.148694 61.433868l544.338779 314.269892c17.745246 10.246132 32.154826-0.643832 32.154826-24.306203V433.18879c0-23.662371-14.409581-51.187737-32.154826-61.433868L248.384383 57.478898c-17.745246-10.246132-32.148695 0.643832-32.148694 24.306204v526.703904z" fill="#6D8ACA"/>

<path d="M227.383186 55.774275l-23.594923 17.93533 21.424288 6.082682 2.170635-24.018012zM795.280096 1001.741796l21.240335-17.861748-12.974754-7.008575-8.265581 24.870323z" fill="#6D8ACA"/>

<path d="M196.215569 622.935377c0 23.631713 14.385054 51.120287 32.111904 61.354156l544.424623 314.318946c17.720719 10.233868 32.105772-0.643832 32.105772-24.269413V448.346443c0-23.631713-14.385054-51.120287-32.105772-61.354156L228.327473 72.66721C210.600623 62.439473 196.215569 73.317174 196.215569 96.942754v525.992623z"/>

<path d="M551.212455 797.818635l-137.430611-79.344671v136.192l137.430611 79.350802v-136.198131z" fill="#6D8ACA"/>

<path d="M539.120671 790.834587l-137.436743-79.344671v136.192l137.436743 79.350803v-136.198132z" fill="#4762AF"/>

<path d="M196.215569 623.174515c0 23.496814 14.305341 50.832096 31.927952 61.010778l547.827736 316.287234c15.942515 9.203737 28.886611-0.582515 28.886611-21.841246v-62.850299L196.215569 564.383425v58.79109z" fill="#4762AF"/>

<path d="M210.913341 554.241533l575.739402 332.401437V448.928958c0-18.186731-11.073916-39.341222-24.710899-47.214371L235.62424 97.84412c-13.636982-7.87315-24.710898 0.496671-24.710899 18.683401v437.714012z" fill="#FFFFFF"/>

<path d="M372.77279 301.51588c0-6.793964-4.138922-14.703904-9.234395-17.647137l-82.968527-47.901126c-5.095473-2.943234-9.234395 0.183952-9.234395 6.984048V341.476407c0 6.800096 4.138922 14.710036 9.234395 17.65327l82.968527 47.901125c5.095473 2.943234 9.234395-0.190084 9.234395-6.984048V301.51588zM372.77279 443.349078c0-0.288192-0.171689-0.619305-0.386299-0.74194l-100.664719-58.122731c-0.214611-0.122635-0.386299 0.012263-0.386299 0.294324v9.344766c0 0.28206 0.171689 0.619305 0.386299 0.74194l100.664719 58.116599c0.214611 0.122635 0.386299-0.006132 0.386299-0.294323v-9.338635zM372.77279 464.963449c0-0.28206-0.171689-0.619305-0.386299-0.74194L271.721772 406.10491c-0.214611-0.122635-0.386299 0.006132-0.386299 0.294324v9.338634c0 0.288192 0.171689 0.619305 0.386299 0.74194l100.664719 58.122731c0.214611 0.122635 0.386299-0.012263 0.386299-0.294323v-9.344767z" fill="#E7E7E7"/>

<path d="M327.78424 460.609916c0-0.288192-0.171689-0.619305-0.3863-0.74194l-55.676168-32.142563c-0.214611-0.128766-0.386299 0.006132-0.386299 0.294324v9.338634c0 0.288192 0.171689 0.619305 0.386299 0.74194l55.676168 32.142563c0.214611 0.122635 0.386299-0.006132 0.3863-0.294323v-9.338635z" fill="#7058FF"/>

<path d="M557.043737 407.907641c0-6.800096-4.138922-14.710036-9.234396-17.65327l-82.968527-47.901125c-5.101605-2.943234-9.240527 0.190084-9.240527 6.984047v98.530875c0 6.793964 4.138922 14.703904 9.240527 17.647137l82.968527 47.901126c5.095473 2.943234 9.234395-0.183952 9.234396-6.984048V407.907641zM557.043737 549.734707c0-0.288192-0.171689-0.619305-0.392432-0.741941l-100.658586-58.116598c-0.214611-0.128766-0.392431 0.006132-0.392432 0.294323v9.338635c0 0.288192 0.17782 0.619305 0.392432 0.74194l100.658586 58.116599c0.220743 0.128766 0.392431-0.006132 0.392432-0.294324v-9.338634zM557.043737 571.35521c0-0.288192-0.171689-0.619305-0.392432-0.748072L455.992719 512.490539c-0.214611-0.122635-0.392431 0.012263-0.392432 0.294323v9.344767c0 0.28206 0.17782 0.619305 0.392432 0.74194l100.658586 58.116599c0.220743 0.122635 0.392431-0.006132 0.392432-0.294324V571.35521z" fill="#E7E7E7"/>

<path d="M512.055186 566.995545c0-0.28206-0.17782-0.619305-0.392432-0.74194l-55.670035-32.142563c-0.214611-0.122635-0.392431 0.006132-0.392432 0.294323v9.338635c0 0.288192 0.17782 0.619305 0.392432 0.74194l55.670035 32.142563c0.214611 0.128766 0.392431-0.006132 0.392432-0.294323v-9.338635z" fill="#7058FF"/>

<path d="M741.314683 514.293269c0-6.800096-4.138922-14.703904-9.240527-17.647137L649.105629 448.745006c-5.095473-2.943234-9.234395 0.183952-9.234395 6.977916v98.530874c0 6.793964 4.138922 14.703904 9.234395 17.647138l82.968527 47.901126c5.101605 2.943234 9.240527-0.183952 9.240527-6.984048V514.293269zM741.314683 656.120335c0-0.28206-0.17782-0.619305-0.392432-0.74194l-100.664718-58.116599c-0.214611-0.122635-0.386299 0.006132-0.386299 0.294324v9.338634c0 0.288192 0.171689 0.619305 0.386299 0.741941l100.664718 58.12273c0.214611 0.122635 0.392431-0.012263 0.392432-0.294323v-9.344767zM741.314683 677.740838c0-0.288192-0.17782-0.619305-0.392432-0.74194l-100.664718-58.116599c-0.214611-0.128766-0.386299 0.006132-0.386299 0.294324v9.338634c0 0.288192 0.171689 0.619305 0.386299 0.741941l100.664718 58.116598c0.214611 0.122635 0.392431-0.006132 0.392432-0.294323v-9.338635z" fill="#E7E7E7"/>

<path d="M696.32 673.387305c0-0.288192-0.171689-0.619305-0.386299-0.748071l-55.676168-32.142563c-0.214611-0.122635-0.386299 0.012263-0.386299 0.294323v9.338635c0 0.288192 0.171689 0.625437 0.386299 0.748072l55.676168 32.142562c0.214611 0.122635 0.386299-0.006132 0.386299-0.294323v-9.338635z" fill="#7058FF"/>

</g>

</svg>